<svg width="21" height="21" viewBox="0 0 21 21" fill="none" xmlns="http://www.w3.org/2000/svg">
<path d="M12.1406 1.84375C12.1406 1.15234 11.582 0.59375 10.8906 0.59375C10.1992 0.59375 9.64062 1.15234 9.64062 1.84375V11.3242L6.77344 8.45703C6.28516 7.96875 5.49219 7.96875 5.00391 8.45703C4.51562 8.94531 4.51562 9.73828 5.00391 10.2266L10.0039 15.2266C10.4922 15.7148 11.2852 15.7148 11.7734 15.2266L16.7734 10.2266C17.2617 9.73828 17.2617 8.94531 16.7734 8.45703C16.2852 7.96875 15.4922 7.96875 15.0039 8.45703L12.1406 11.3242V1.84375ZM3.39062 14.3438C2.01172 14.3438 0.890625 15.4648 0.890625 16.8438V18.0938C0.890625 19.4727 2.01172 20.5938 3.39062 20.5938H18.3906C19.7695 20.5938 20.8906 19.4727 20.8906 18.0938V16.8438C20.8906 15.4648 19.7695 14.3438 18.3906 14.3438H14.4258L12.6562 16.1133C11.6797 17.0898 10.0977 17.0898 9.12109 16.1133L7.35547 14.3438H3.39062ZM17.7656 18.4062C17.2461 18.4062 16.8281 17.9883 16.8281 17.4688C16.8281 16.9492 17.2461 16.5312 17.7656 16.5312C18.2852 16.5312 18.7031 16.9492 18.7031 17.4688C18.7031 17.9883 18.2852 18.4062 17.7656 18.4062Z" fill="white"/>
</svg>
