<svg width="35" height="35" viewBox="0 0 35 35" fill="none" xmlns="http://www.w3.org/2000/svg">
<path d="M11.6648 27.5359C11.6648 27.6766 11.5031 27.7891 11.2992 27.7891C11.0672 27.8102 10.9055 27.6977 10.9055 27.5359C10.9055 27.3953 11.0672 27.2828 11.2711 27.2828C11.482 27.2617 11.6648 27.3742 11.6648 27.5359ZM9.47813 27.2195C9.42891 27.3602 9.56953 27.5219 9.78047 27.5641C9.96328 27.6344 10.1742 27.5641 10.2164 27.4234C10.2586 27.2828 10.125 27.1211 9.91406 27.0578C9.73125 27.0086 9.52734 27.0789 9.47813 27.2195ZM12.5859 27.1C12.382 27.1492 12.2414 27.2828 12.2625 27.4445C12.2836 27.5852 12.4664 27.6766 12.6773 27.6273C12.8813 27.5781 13.0219 27.4445 13.0008 27.3039C12.9797 27.1703 12.7898 27.0789 12.5859 27.1ZM17.2125 0.15625C7.46016 0.15625 0 7.56016 0 17.3125C0 25.1102 4.90781 31.7828 11.918 34.1313C12.818 34.293 13.1344 33.7375 13.1344 33.2805C13.1344 32.8445 13.1133 30.4398 13.1133 28.9633C13.1133 28.9633 8.19141 30.018 7.15781 26.868C7.15781 26.868 6.35625 24.8219 5.20312 24.2945C5.20312 24.2945 3.59297 23.1906 5.31562 23.2117C5.31562 23.2117 7.06641 23.3523 8.02969 25.0258C9.56953 27.7398 12.15 26.9594 13.1555 26.4953C13.3172 25.3703 13.7742 24.5898 14.2805 24.1258C10.35 23.6898 6.38438 23.1203 6.38438 16.3562C6.38438 14.4227 6.91875 13.4523 8.04375 12.2148C7.86094 11.7578 7.26328 9.87344 8.22656 7.44062C9.69609 6.98359 13.0781 9.33906 13.0781 9.33906C14.4844 8.94531 15.9961 8.74141 17.4937 8.74141C18.9914 8.74141 20.5031 8.94531 21.9094 9.33906C21.9094 9.33906 25.2914 6.97656 26.7609 7.44062C27.7242 9.88047 27.1266 11.7578 26.9438 12.2148C28.0688 13.4594 28.7578 14.4297 28.7578 16.3562C28.7578 23.1414 24.6164 23.6828 20.6859 24.1258C21.3328 24.6812 21.8813 25.7359 21.8813 27.3883C21.8813 29.7578 21.8602 32.6898 21.8602 33.2664C21.8602 33.7234 22.1836 34.2789 23.0766 34.1172C30.1078 31.7828 34.875 25.1102 34.875 17.3125C34.875 7.56016 26.9648 0.15625 17.2125 0.15625ZM6.83437 24.407C6.74297 24.4773 6.76406 24.6391 6.88359 24.7727C6.99609 24.8852 7.15781 24.9344 7.24922 24.843C7.34062 24.7727 7.31953 24.6109 7.2 24.4773C7.0875 24.3648 6.92578 24.3156 6.83437 24.407ZM6.075 23.8375C6.02578 23.9289 6.09609 24.0414 6.23672 24.1117C6.34922 24.182 6.48984 24.1609 6.53906 24.0625C6.58828 23.9711 6.51797 23.8586 6.37734 23.7883C6.23672 23.7461 6.12422 23.7672 6.075 23.8375ZM8.35313 26.3406C8.24063 26.432 8.28281 26.643 8.44453 26.7766C8.60625 26.9383 8.81016 26.9594 8.90156 26.8469C8.99297 26.7555 8.95078 26.5445 8.81016 26.4109C8.65547 26.2492 8.44453 26.2281 8.35313 26.3406ZM7.55156 25.307C7.43906 25.3773 7.43906 25.5602 7.55156 25.7219C7.66406 25.8836 7.85391 25.9539 7.94531 25.8836C8.05781 25.7922 8.05781 25.6094 7.94531 25.4477C7.84688 25.2859 7.66406 25.2156 7.55156 25.307Z" fill="white"/>
</svg>
