<svg width="32" height="33" viewBox="0 0 32 33" fill="none" xmlns="http://www.w3.org/2000/svg">
<path d="M16.0695 8.50782C11.5977 8.50782 7.99062 12.1148 7.99062 16.5867C7.99062 21.0586 11.5977 24.6656 16.0695 24.6656C20.5414 24.6656 24.1484 21.0586 24.1484 16.5867C24.1484 12.1148 20.5414 8.50782 16.0695 8.50782ZM16.0695 21.8391C13.1797 21.8391 10.8172 19.4836 10.8172 16.5867C10.8172 13.6898 13.1727 11.3344 16.0695 11.3344C18.9664 11.3344 21.3219 13.6898 21.3219 16.5867C21.3219 19.4836 18.9594 21.8391 16.0695 21.8391ZM26.3633 8.17735C26.3633 9.22501 25.5195 10.0617 24.4789 10.0617C23.4312 10.0617 22.5945 9.21797 22.5945 8.17735C22.5945 7.13672 23.4383 6.29297 24.4789 6.29297C25.5195 6.29297 26.3633 7.13672 26.3633 8.17735ZM31.7141 10.0899C31.5945 7.56563 31.018 5.32969 29.1687 3.48751C27.3266 1.64532 25.0906 1.06876 22.5664 0.942194C19.9648 0.794537 12.1672 0.794537 9.56562 0.942194C7.04843 1.06172 4.81249 1.63829 2.96328 3.48047C1.11406 5.32266 0.544525 7.5586 0.417963 10.0828C0.270306 12.6844 0.270306 20.482 0.417963 23.0836C0.537494 25.6078 1.11406 27.8438 2.96328 29.6859C4.81249 31.5281 7.0414 32.1047 9.56562 32.2313C12.1672 32.3789 19.9648 32.3789 22.5664 32.2313C25.0906 32.1117 27.3266 31.5352 29.1687 29.6859C31.0109 27.8438 31.5875 25.6078 31.7141 23.0836C31.8617 20.482 31.8617 12.6914 31.7141 10.0899ZM28.3531 25.875C27.8047 27.2531 26.743 28.3148 25.3578 28.8703C23.2836 29.693 18.3617 29.5031 16.0695 29.5031C13.7773 29.5031 8.84843 29.6859 6.78124 28.8703C5.40312 28.3219 4.3414 27.2602 3.78593 25.875C2.96328 23.8008 3.15312 18.8789 3.15312 16.5867C3.15312 14.2945 2.97031 9.36563 3.78593 7.29844C4.33437 5.92032 5.39609 4.8586 6.78124 4.30313C8.85546 3.48047 13.7773 3.67032 16.0695 3.67032C18.3617 3.67032 23.2906 3.48751 25.3578 4.30313C26.7359 4.85157 27.7977 5.91329 28.3531 7.29844C29.1758 9.37266 28.9859 14.2945 28.9859 16.5867C28.9859 18.8789 29.1758 23.8078 28.3531 25.875Z" fill="white"/>
</svg>
