<svg width="757" height="590" viewBox="0 0 757 590" fill="none" xmlns="http://www.w3.org/2000/svg">
<path opacity="0.34" d="M193.93 305.094H563.038" stroke="#7027B9" stroke-width="1.98445" stroke-linecap="round"/>
<path opacity="0.57" d="M326.024 301.425L430.944 308.762" stroke="#7027B9" stroke-width="1.98445" stroke-linecap="round"/>
<path opacity="0.09" d="M411.237 309.697L345.732 300.491" stroke="#7027B9" stroke-width="1.98445" stroke-linecap="round"/>
<path opacity="0.92" d="M420.541 314.033L336.427 296.154" stroke="#7027B9" stroke-width="1.98445" stroke-linecap="round"/>
<path opacity="0.75" d="M578.462 362.436L178.507 247.751" stroke="#7027B9" stroke-width="1.98445" stroke-linecap="round"/>
<path opacity="0.22" d="M459.602 334.618L297.367 275.569" stroke="#7027B9" stroke-width="1.98445" stroke-linecap="round"/>
<path opacity="0.26" d="M204.447 227.607L552.522 382.58" stroke="#7027B9" stroke-width="1.98445" stroke-linecap="round"/>
<path opacity="0.13" d="M508.729 374.346L248.24 235.841" stroke="#7027B9" stroke-width="1.98445" stroke-linecap="round"/>
<path opacity="0.77" d="M409.338 324.373L347.631 285.814" stroke="#7027B9" stroke-width="1.98445" stroke-linecap="round"/>
<path opacity="0.17" d="M200.279 175.62L556.69 434.568" stroke="#7027B9" stroke-width="1.98445" stroke-linecap="round"/>
<path opacity="0.36" d="M420.289 340.172L336.679 270.015" stroke="#7027B9" stroke-width="1.98445" stroke-linecap="round"/>
<path opacity="0.33" d="M338.514 266.495L418.454 343.692" stroke="#7027B9" stroke-width="1.98445" stroke-linecap="round"/>
<path opacity="0.6" d="M326.919 247.825L430.05 362.363" stroke="#7027B9" stroke-width="1.98445" stroke-linecap="round"/>
<path opacity="0.44" d="M270.563 166.961L486.406 443.227" stroke="#7027B9" stroke-width="1.98445" stroke-linecap="round"/>
<path opacity="0.17" d="M285.64 167.447L471.329 442.741" stroke="#7027B9" stroke-width="1.98445" stroke-linecap="round"/>
<path opacity="0.1" d="M395.683 334.883L361.286 275.305" stroke="#7027B9" stroke-width="1.98445" stroke-linecap="round"/>
<path opacity="0.13" d="M403.712 356.819L353.257 253.369" stroke="#7027B9" stroke-width="1.98445" stroke-linecap="round"/>
<path opacity="0.32" d="M305.137 123.552L451.832 486.636" stroke="#7027B9" stroke-width="1.98445" stroke-linecap="round"/>
<path opacity="0.3" d="M439.296 492.254L317.672 117.934" stroke="#7027B9" stroke-width="1.98445" stroke-linecap="round"/>
<path opacity="0.08" d="M428.813 506.951L328.156 103.236" stroke="#7027B9" stroke-width="1.98445" stroke-linecap="round"/>
<path opacity="0.08" d="M386.984 353.3L369.984 256.888" stroke="#7027B9" stroke-width="1.98445" stroke-linecap="round"/>
<path opacity="0.49" d="M362.478 152.799L394.491 457.389" stroke="#7027B9" stroke-width="1.98445" stroke-linecap="round"/>
<path opacity="0.94" d="M377.884 287.906L379.085 322.282" stroke="#7027B9" stroke-width="1.98445" stroke-linecap="round"/>
<path opacity="0.74" d="M376.995 347.733L379.973 262.454" stroke="#7027B9" stroke-width="1.98445" stroke-linecap="round"/>
<path opacity="0.9" d="M373.264 354.762L383.705 255.425" stroke="#7027B9" stroke-width="1.98445" stroke-linecap="round"/>
<path opacity="0.34" d="M379.863 297.277L377.106 312.911" stroke="#7027B9" stroke-width="1.98445" stroke-linecap="round"/>
<path opacity="0.52" d="M326.715 512.727L430.253 97.46" stroke="#7027B9" stroke-width="1.98445" stroke-linecap="round"/>
<path opacity="0.1" d="M385.536 283.389L371.432 326.798" stroke="#7027B9" stroke-width="1.98445" stroke-linecap="round"/>
<path opacity="0.76" d="M335.616 411.198L421.353 198.99" stroke="#7027B9" stroke-width="1.98445" stroke-linecap="round"/>
<path opacity="0.97" d="M334.553 395.166L422.416 215.021" stroke="#7027B9" stroke-width="1.98445" stroke-linecap="round"/>
<path opacity="0.19" d="M437.853 202.265L319.116 407.923" stroke="#7027B9" stroke-width="1.98445" stroke-linecap="round"/>
<path opacity="0.86" d="M467.815 172.656L289.154 437.531" stroke="#7027B9" stroke-width="1.98445" stroke-linecap="round"/>
<path opacity="0.86" d="M329.411 367.905L427.558 242.282" stroke="#7027B9" stroke-width="1.98445" stroke-linecap="round"/>
<path opacity="0.82" d="M359.009 326.723L397.96 283.464" stroke="#7027B9" stroke-width="1.98445" stroke-linecap="round"/>
<path opacity="0.56" d="M330.187 351.734L426.781 258.454" stroke="#7027B9" stroke-width="1.98445" stroke-linecap="round"/>
<path opacity="0.38" d="M328.825 346.763L428.144 263.425" stroke="#7027B9" stroke-width="1.98445" stroke-linecap="round"/>
<path opacity="0.51" d="M259.681 391.41L497.288 218.778" stroke="#7027B9" stroke-width="1.98445" stroke-linecap="round"/>
<path opacity="0.68" d="M446.362 262.679L310.607 347.508" stroke="#7027B9" stroke-width="1.98445" stroke-linecap="round"/>
<path opacity="0.79" d="M361.255 314.255L395.714 295.933" stroke="#7027B9" stroke-width="1.98445" stroke-linecap="round"/>
<path opacity="0.4" d="M422.296 285.588L334.673 324.6" stroke="#7027B9" stroke-width="1.98445" stroke-linecap="round"/>
<path opacity="0.76" d="M576.772 232.923L180.197 377.265" stroke="#7027B9" stroke-width="1.98445" stroke-linecap="round"/>
<path opacity="0.19" d="M160.067 367.724L596.902 242.463" stroke="#7027B9" stroke-width="1.98445" stroke-linecap="round"/>
<path opacity="0.72" d="M307.635 320.153L449.334 290.034" stroke="#7027B9" stroke-width="1.98445" stroke-linecap="round"/>
<path opacity="0.82" d="M163.629 335.29L593.34 274.898" stroke="#7027B9" stroke-width="1.98445" stroke-linecap="round"/>
<path opacity="0.64" d="M260.697 313.33L496.272 296.857" stroke="#7027B9" stroke-width="1.98445" stroke-linecap="round"/>
<path opacity="0.8" d="M304.729 305.094H452.24" stroke="#7027B9" stroke-width="1.98445" stroke-linecap="round"/>
<path opacity="0.14" d="M443.812 309.662L313.157 300.526" stroke="#7027B9" stroke-width="1.98445" stroke-linecap="round"/>
<path opacity="0.49" d="M211.447 281.618L545.521 328.569" stroke="#7027B9" stroke-width="1.98445" stroke-linecap="round"/>
<path opacity="0.85" d="M215.433 270.436L541.536 339.751" stroke="#7027B9" stroke-width="1.98445" stroke-linecap="round"/>
<path opacity="0.4" d="M231.919 263.067L525.05 347.121" stroke="#7027B9" stroke-width="1.98445" stroke-linecap="round"/>
<path opacity="0.76" d="M317.258 282.809L439.711 327.378" stroke="#7027B9" stroke-width="1.98445" stroke-linecap="round"/>
<path opacity="0.23" d="M360.658 297.157L396.311 313.031" stroke="#7027B9" stroke-width="1.98445" stroke-linecap="round"/>
<path opacity="0.54" d="M447.695 341.894L309.274 268.294" stroke="#7027B9" stroke-width="1.98445" stroke-linecap="round"/>
<path opacity="0.19" d="M420.557 331.384L336.412 278.804" stroke="#7027B9" stroke-width="1.98445" stroke-linecap="round"/>
<path opacity="0.99" d="M304.098 251.049L452.871 359.138" stroke="#7027B9" stroke-width="1.98445" stroke-linecap="round"/>
<path opacity="0.8" d="M542.41 442.644L214.558 167.543" stroke="#7027B9" stroke-width="1.98445" stroke-linecap="round"/>
<path opacity="0.22" d="M233.356 164.944L523.613 445.243" stroke="#7027B9" stroke-width="1.98445" stroke-linecap="round"/>
<path opacity="0.92" d="M241.715 153.196L515.254 456.992" stroke="#7027B9" stroke-width="1.98445" stroke-linecap="round"/>
<path opacity="0.88" d="M393.145 323.859L363.823 286.329" stroke="#7027B9" stroke-width="1.98445" stroke-linecap="round"/>
<path opacity="0.52" d="M496.482 480.032L260.487 130.156" stroke="#7027B9" stroke-width="1.98445" stroke-linecap="round"/>
<path opacity="0.76" d="M440.664 412.792L316.305 197.396" stroke="#7027B9" stroke-width="1.98445" stroke-linecap="round"/>
<path opacity="0.45" d="M291.782 127.327L465.187 482.861" stroke="#7027B9" stroke-width="1.98445" stroke-linecap="round"/>
<path opacity="0.82" d="M461.992 511.782L294.977 98.4057" stroke="#7027B9" stroke-width="1.98445" stroke-linecap="round"/>
<path opacity="0.18" d="M438.683 490.366L318.286 119.821" stroke="#7027B9" stroke-width="1.98445" stroke-linecap="round"/>
<path opacity="0.65" d="M371.203 275.89L385.766 334.297" stroke="#7027B9" stroke-width="1.98445" stroke-linecap="round"/>
<path opacity="0.37" d="M383.998 336.363L372.971 273.825" stroke="#7027B9" stroke-width="1.98445" stroke-linecap="round"/>
<path opacity="0.94" d="M372.538 248.518L384.431 361.67" stroke="#7027B9" stroke-width="1.98445" stroke-linecap="round"/>
<path opacity="0.15" d="M386.16 524.903L370.808 85.2842" stroke="#7027B9" stroke-width="1.98445" stroke-linecap="round"/>
<path opacity="0.24" d="M375.599 387.729L381.37 222.459" stroke="#7027B9" stroke-width="1.98445" stroke-linecap="round"/>
<path opacity="0.37" d="M359.85 482.387L397.119 127.8" stroke="#7027B9" stroke-width="1.98445" stroke-linecap="round"/>
<path opacity="0.31" d="M392.728 224.316L364.241 385.872" stroke="#7027B9" stroke-width="1.98445" stroke-linecap="round"/>
<path opacity="0.31" d="M374.324 321.781L382.645 288.406" stroke="#7027B9" stroke-width="1.98445" stroke-linecap="round"/>
<path opacity="0.15" d="M446.859 94.6568L310.109 515.531" stroke="#7027B9" stroke-width="1.98445" stroke-linecap="round"/>
<path opacity="0.97" d="M426.557 186.11L330.412 424.077" stroke="#7027B9" stroke-width="1.98445" stroke-linecap="round"/>
<path opacity="0.17" d="M362.246 338.388L394.723 271.8" stroke="#7027B9" stroke-width="1.98445" stroke-linecap="round"/>
<path opacity="0.44" d="M421.977 229.762L334.992 380.425" stroke="#7027B9" stroke-width="1.98445" stroke-linecap="round"/>
<path opacity="0.38" d="M491.488 137.559L265.481 472.629" stroke="#7027B9" stroke-width="1.98445" stroke-linecap="round"/>
<path opacity="0.99" d="M270.97 442.706L485.999 167.482" stroke="#7027B9" stroke-width="1.98445" stroke-linecap="round"/>
<path opacity="0.42" d="M267.829 427.988L489.139 182.199" stroke="#7027B9" stroke-width="1.98445" stroke-linecap="round"/>
<path opacity="0.46" d="M423.213 261.9L333.756 348.287" stroke="#7027B9" stroke-width="1.98445" stroke-linecap="round"/>
<path opacity="0.11" d="M308.809 363.558L448.159 246.63" stroke="#7027B9" stroke-width="1.98445" stroke-linecap="round"/>
<path opacity="0.8" d="M279.214 377.218L477.755 232.969" stroke="#7027B9" stroke-width="1.98445" stroke-linecap="round"/>
<path opacity="0.78" d="M329.96 335.415L427.008 274.773" stroke="#7027B9" stroke-width="1.98445" stroke-linecap="round"/>
<path opacity="0.69" d="M337.308 326.987L419.66 283.2" stroke="#7027B9" stroke-width="1.98445" stroke-linecap="round"/>
<path opacity="0.43" d="M534.091 235.813L222.878 374.374" stroke="#7027B9" stroke-width="1.98445" stroke-linecap="round"/>
<path opacity="0.99" d="M174.602 379.301L582.367 230.887" stroke="#7027B9" stroke-width="1.98445" stroke-linecap="round"/>
<path opacity="0.59" d="M514.24 266.166L242.728 344.021" stroke="#7027B9" stroke-width="1.98445" stroke-linecap="round"/>
<path opacity="0.97" d="M366.514 307.638L390.454 302.549" stroke="#7027B9" stroke-width="1.98445" stroke-linecap="round"/>
</svg>
