<svg width="33" height="37" viewBox="0 0 33 37" fill="none" xmlns="http://www.w3.org/2000/svg">
<path d="M29.9062 2.84375H2.89922C1.66172 2.84375 0.65625 3.86328 0.65625 5.11484V32.0727C0.65625 33.3242 1.66172 34.3438 2.89922 34.3438H29.9062C31.1437 34.3438 32.1562 33.3242 32.1562 32.0727V5.11484C32.1562 3.86328 31.1437 2.84375 29.9062 2.84375ZM10.1766 29.8438H5.50781V14.8109H10.1836V29.8438H10.1766ZM7.84219 12.7578C6.34453 12.7578 5.13516 11.5414 5.13516 10.0508C5.13516 8.56016 6.34453 7.34375 7.84219 7.34375C9.33281 7.34375 10.5492 8.56016 10.5492 10.0508C10.5492 11.5484 9.33984 12.7578 7.84219 12.7578ZM27.6773 29.8438H23.0086V22.5312C23.0086 20.7875 22.9734 18.5445 20.5828 18.5445C18.15 18.5445 17.7773 20.443 17.7773 22.4047V29.8438H13.1086V14.8109H17.5875V16.8641H17.6508C18.2766 15.6828 19.8023 14.4383 22.0734 14.4383C26.7984 14.4383 27.6773 17.5531 27.6773 21.6031V29.8438Z" fill="white"/>
</svg>
