<svg width="21" height="21" viewBox="0 0 21 21" fill="none" xmlns="http://www.w3.org/2000/svg">
<path d="M6.94141 1.55471C6.64062 0.828151 5.84766 0.441433 5.08984 0.648464L1.65234 1.58596C0.972656 1.77346 0.5 2.39065 0.5 3.09378C0.5 12.7578 8.33594 20.5938 18 20.5938C18.7031 20.5938 19.3203 20.1211 19.5078 19.4414L20.4453 16.0039C20.6523 15.2461 20.2656 14.4532 19.5391 14.1524L15.7891 12.5899C15.1523 12.3242 14.4141 12.5078 13.9805 13.043L12.4023 14.9688C9.65234 13.668 7.42578 11.4414 6.125 8.69143L8.05078 7.11721C8.58594 6.67971 8.76953 5.94534 8.50391 5.30862L6.94141 1.55862V1.55471Z" fill="white"/>
</svg>
